<?xml version="1.0" standalone="no"?>
<!DOCTYPE svg PUBLIC "-//W3C//DTD SVG 20010904//EN"
 "http://www.w3.org/TR/2001/REC-SVG-20010904/DTD/svg10.dtd">
<svg version="1.0" xmlns="http://www.w3.org/2000/svg"
 width="1080.000000pt" height="1080.000000pt" viewBox="0 0 1080.000000 1080.000000"
 preserveAspectRatio="xMidYMid meet">
<metadata>
Created by potrace 1.14, written by Peter Selinger 2001-2017
</metadata>
<g transform="translate(0.000000,1080.000000) scale(0.100000,-0.100000)"
fill="#000000" stroke="none">
<path d="M1470 10785 c-356 -50 -660 -191 -915 -424 -300 -273 -486 -631 -540
-1040 -22 -159 -22 -7683 0 -7842 54 -410 234 -757 540 -1040 191 -177 455
-320 714 -385 224 -57 -8 -54 4131 -54 4139 0 3907 -3 4131 54 259 65 523 208
714 385 305 283 486 630 540 1040 12 90 15 686 15 3909 0 2598 -3 3834 -11
3900 -64 594 -434 1110 -973 1357 -162 75 -301 114 -496 140 -151 21 -7703 20
-7850 0z m4281 -629 c193 -45 349 -263 424 -589 66 -287 71 -725 14 -1137 -25
-177 -69 -401 -114 -575 -45 -173 -195 -667 -237 -780 l-34 -90 -114 3 c-158
5 -336 -23 -540 -85 -12 -3 -23 24 -52 124 -19 71 -59 179 -87 242 -129 285
-204 597 -246 1026 -55 543 62 1093 309 1465 79 117 129 175 225 257 149 127
303 175 452 139z m-2236 -398 c411 -135 899 -840 1178 -1703 126 -387 277
-1019 277 -1156 l0 -60 -92 -44 c-94 -44 -235 -122 -304 -168 l-37 -26 -49 25
c-28 14 -86 60 -131 102 -100 95 -143 128 -277 220 -225 152 -479 411 -714
727 -253 339 -415 702 -480 1075 -36 210 -29 419 20 607 87 337 326 494 609
401z m4216 18 c123 -26 202 -84 281 -204 140 -215 170 -618 73 -993 -111 -433
-339 -823 -726 -1247 -117 -128 -301 -294 -404 -364 -134 -91 -234 -170 -285
-223 -25 -26 -62 -60 -83 -77 l-37 -30 -48 39 c-106 89 -236 165 -369 218 -71
29 -93 41 -93 56 0 73 126 601 226 946 291 1006 874 1837 1324 1886 66 7 75 7
141 -7z m-5767 -1662 c239 -38 591 -176 901 -352 200 -114 494 -320 690 -483
254 -212 728 -662 795 -755 l29 -41 -60 -53 c-84 -73 -199 -206 -271 -315 -33
-49 -61 -91 -62 -92 -1 -2 -38 4 -82 13 -43 8 -170 19 -280 24 -321 14 -577
66 -939 190 -299 103 -484 194 -700 345 -387 271 -631 586 -715 921 -29 114
-24 246 11 343 79 216 333 310 683 255z m7426 2 c164 -35 263 -103 319 -219
80 -165 63 -362 -53 -602 -148 -306 -423 -584 -796 -805 -161 -96 -331 -170
-570 -250 -359 -120 -584 -165 -905 -180 -184 -9 -266 -17 -337 -35 -25 -7
-29 -3 -67 72 -55 110 -146 243 -235 346 -42 47 -76 89 -76 92 0 30 454 463
752 717 184 158 513 392 703 500 219 125 476 240 689 308 201 63 434 86 576
56z m-3499 -1740 c101 -21 193 -52 252 -84 59 -32 61 -37 87 -291 16 -150 18
-196 9 -202 -23 -14 -36 2 -67 84 -87 229 -258 385 -478 438 -126 30 -343 24
-456 -13 -255 -84 -429 -285 -499 -574 -37 -156 -42 -401 -10 -561 56 -283
227 -513 464 -623 121 -57 204 -72 397 -74 360 -2 423 57 437 409 10 266 -8
287 -259 301 l-118 7 0 27 0 27 388 -5 c382 -5 408 -7 399 -37 -2 -5 -32 -13
-67 -17 -91 -10 -101 -23 -112 -150 -7 -69 -6 -166 2 -297 6 -107 7 -198 3
-202 -17 -16 -221 -78 -308 -93 -239 -41 -586 -46 -741 -12 -313 68 -561 251
-689 506 -86 173 -109 282 -103 487 7 218 47 354 153 518 144 223 395 378 706
435 158 30 460 27 610 -4z m-3341 -306 c359 -48 644 -121 858 -219 130 -60
208 -88 322 -116 36 -9 80 -21 98 -28 l33 -11 -8 -66 c-14 -110 -8 -327 10
-414 9 -43 17 -82 17 -87 0 -50 -881 -329 -1305 -414 -366 -73 -678 -102 -973
-91 -466 18 -747 99 -928 268 -162 152 -185 316 -77 538 29 60 57 96 142 181
239 239 559 386 996 458 170 28 185 29 435 25 153 -2 274 -10 380 -24z m6470
5 c349 -53 614 -146 835 -293 196 -130 326 -272 381 -419 137 -360 -154 -641
-742 -717 -447 -57 -1019 -8 -1554 135 -244 66 -828 247 -848 264 -2 2 6 52
18 111 28 142 36 331 21 464 -7 58 -13 109 -14 113 -1 5 45 26 103 46 58 21
143 56 190 78 242 114 640 202 1075 237 101 8 433 -4 535 -19z m-1899 -1310
c46 -8 156 -18 244 -21 187 -6 329 -24 512 -64 623 -135 1134 -395 1474 -747
137 -143 218 -254 294 -408 109 -217 136 -370 95 -531 -50 -196 -202 -302
-460 -320 -406 -28 -1090 271 -1690 739 -204 159 -589 506 -793 716 l-139 142
44 47 c98 106 202 263 265 400 27 60 36 72 52 67 10 -3 56 -12 102 -20z
m-3123 -43 c52 -128 167 -296 281 -410 l52 -52 -30 -38 c-81 -101 -498 -490
-756 -706 -492 -411 -1070 -722 -1519 -818 -78 -16 -135 -21 -246 -21 -129 0
-154 3 -225 26 -135 44 -214 108 -261 212 -74 161 -53 370 60 600 77 156 161
270 316 426 328 331 718 541 1295 699 226 61 407 90 645 101 113 5 234 16 270
23 97 20 93 22 118 -42z m547 -623 c91 -61 196 -113 320 -160 l100 -38 -2 -58
c-3 -84 -53 -310 -143 -650 -139 -527 -272 -884 -447 -1208 -215 -394 -458
-701 -667 -840 -148 -98 -249 -131 -382 -123 -180 11 -326 142 -399 359 -130
381 -48 913 216 1401 203 375 607 841 919 1059 157 109 202 144 298 233 58 53
98 83 105 79 7 -5 44 -29 82 -54z m2114 -32 c54 -51 141 -122 191 -158 172
-120 245 -177 334 -260 197 -184 455 -494 592 -711 85 -135 192 -354 242 -499
91 -261 122 -427 122 -653 0 -381 -113 -635 -326 -733 -69 -31 -180 -42 -265
-24 -302 63 -666 462 -964 1056 -159 316 -269 624 -400 1115 -74 279 -145 602
-145 658 0 26 7 31 106 71 109 45 251 126 339 192 28 21 55 38 62 38 7 1 57
-41 112 -92z m-1399 -234 c88 -15 208 -17 494 -9 l49 1 39 -109 c57 -160 193
-615 243 -811 105 -416 154 -829 142 -1205 -15 -454 -100 -742 -273 -930 -79
-84 -161 -124 -269 -128 -142 -6 -247 32 -380 140 -376 302 -603 995 -546
1663 39 446 117 789 246 1075 46 102 95 240 110 308 6 29 10 33 28 28 12 -3
65 -14 117 -23z"/>
</g>
</svg>
