<?xml version="1.0" standalone="no"?>
<!DOCTYPE svg PUBLIC "-//W3C//DTD SVG 20010904//EN"
 "http://www.w3.org/TR/2001/REC-SVG-20010904/DTD/svg10.dtd">
<svg version="1.0" xmlns="http://www.w3.org/2000/svg"
 width="1080.000000pt" height="1080.000000pt" viewBox="0 0 1080.000000 1080.000000"
 preserveAspectRatio="xMidYMid meet">
<metadata>
Created by potrace 1.14, written by Peter Selinger 2001-2017
</metadata>
<g transform="translate(0.000000,1080.000000) scale(0.100000,-0.100000)"
fill="#000000" stroke="none">
<path d="M1499 10790 c-434 -51 -831 -266 -1108 -600 -214 -257 -346 -570
-381 -907 -7 -67 -10 -1334 -8 -3953 l3 -3855 27 -121 c51 -228 127 -410 245
-589 253 -384 621 -633 1082 -733 l126 -27 3915 0 3915 0 126 27 c455 99 818
341 1070 717 128 189 204 369 257 605 l27 121 3 3855 c2 2619 -1 3886 -8 3953
-30 285 -119 531 -279 768 -251 373 -615 618 -1066 717 l-120 26 -3880 2
c-2134 1 -3910 -2 -3946 -6z m4035 -1392 c227 -149 381 -238 412 -238 8 0 38
-10 65 -21 57 -25 87 -67 114 -164 36 -128 91 -188 247 -266 126 -63 193 -125
328 -304 98 -130 133 -169 227 -257 42 -40 53 -57 71 -120 21 -74 79 -176 122
-213 33 -29 60 -88 135 -295 37 -102 95 -243 130 -315 85 -175 93 -219 70
-413 -24 -200 -17 -287 31 -422 33 -93 37 -116 38 -205 1 -95 -1 -105 -39
-195 -38 -91 -40 -99 -40 -205 1 -60 9 -163 20 -229 17 -105 17 -131 7 -235
-41 -401 -251 -799 -762 -1441 -476 -598 -835 -1118 -1037 -1504 l-74 -141 7
190 6 190 45 64 c144 201 306 386 567 645 111 110 188 191 171 181 -146 -89
-555 -474 -705 -662 -35 -45 -66 -80 -68 -78 -2 1 0 142 4 311 l7 308 201 206
c339 346 551 547 1096 1040 324 292 482 440 473 440 -10 0 -315 -240 -493
-389 -360 -302 -686 -598 -1059 -966 l-224 -220 7 109 c3 60 6 197 7 305 l0
196 42 33 c68 55 271 237 421 380 283 268 642 659 953 1038 160 194 368 459
416 529 l20 30 -25 -25 c-47 -48 -226 -247 -413 -460 -480 -546 -746 -829
-1020 -1083 -190 -176 -384 -341 -393 -332 -4 3 -9 165 -10 359 l-4 352 259
259 c407 407 766 813 1130 1275 142 181 403 529 403 538 0 3 -2 3 -3 1 -2 -2
-51 -58 -108 -124 -95 -109 -161 -187 -518 -605 -403 -473 -749 -845 -1042
-1120 l-125 -119 -12 358 -12 358 213 214 c281 282 495 535 809 954 183 245
525 735 514 735 -7 0 -147 -177 -361 -455 -483 -629 -802 -1001 -1054 -1231
-63 -57 -117 -104 -121 -104 -4 0 -10 80 -14 178 -4 97 -11 235 -16 306 l-8
128 157 197 c196 244 474 615 653 871 137 196 352 528 383 591 l16 34 -21 -25
c-11 -14 -181 -239 -378 -500 -552 -736 -798 -1049 -812 -1033 -4 4 -14 134
-24 288 -9 154 -19 298 -22 320 -5 38 -1 45 62 120 155 185 347 456 496 704
119 197 338 603 310 576 -6 -5 -71 -104 -145 -220 -251 -389 -371 -569 -481
-715 -107 -142 -246 -313 -251 -308 -2 2 -11 95 -20 208 -9 113 -25 295 -35
405 l-19 199 67 73 c137 150 194 221 263 323 70 105 235 417 225 427 -2 3 -65
-87 -139 -198 -150 -228 -227 -327 -346 -444 -62 -60 -81 -75 -82 -60 0 11
-10 117 -23 235 l-23 215 66 70 c37 38 83 93 104 122 37 51 142 261 134 269
-2 2 -45 -51 -95 -119 -92 -123 -222 -263 -222 -238 0 23 -51 442 -70 581
l-19 135 4 -125 c2 -69 11 -221 20 -338 9 -117 15 -219 13 -228 -2 -11 -23 -2
-83 38 -91 59 -184 148 -273 262 -34 43 -62 75 -62 71 0 -18 108 -201 150
-253 36 -46 240 -213 272 -224 6 -3 59 -688 54 -695 -1 -2 -52 36 -112 84
-147 116 -341 313 -503 511 -73 89 -135 162 -137 162 -16 0 158 -257 255 -377
91 -114 312 -331 424 -418 59 -46 78 -67 82 -90 5 -36 45 -713 45 -768 l0 -39
-67 53 c-365 286 -612 545 -1008 1054 -81 105 -150 192 -153 195 -29 26 220
-343 323 -480 255 -338 509 -599 816 -843 l96 -76 7 -88 c11 -169 28 -558 25
-577 -5 -22 -144 96 -449 380 -250 233 -477 464 -1039 1059 -106 112 -85 76
63 -109 313 -389 743 -838 1181 -1231 104 -93 204 -183 222 -200 l32 -30 11
-325 c6 -179 12 -353 13 -388 1 -34 0 -62 -3 -62 -11 0 -446 383 -660 579
-276 255 -416 388 -920 880 -217 213 -384 373 -371 356 49 -64 317 -360 503
-555 333 -350 783 -779 1224 -1166 l232 -203 7 -314 c4 -173 6 -320 4 -326
-11 -31 -714 588 -1685 1479 -526 484 -528 486 -427 375 124 -138 760 -765
1013 -1000 253 -234 620 -559 908 -804 l192 -164 0 -310 0 -310 -248 244
c-463 457 -867 816 -1292 1150 -152 120 -493 369 -505 369 -3 0 94 -84 217
-186 614 -513 1049 -905 1501 -1354 l327 -326 -1 -165 c-1 -90 -4 -203 -8
-250 l-6 -87 -54 62 c-348 396 -788 786 -1231 1088 -124 85 -460 292 -460 283
0 -2 30 -26 68 -52 799 -567 1248 -964 1635 -1447 l47 -58 -6 -187 c-4 -102
-9 -228 -13 -278 l-6 -93 -111 148 c-209 277 -485 567 -754 793 -221 186 -219
176 10 -52 380 -379 556 -583 770 -894 l82 -120 -6 -140 c-4 -77 -9 -164 -13
-193 l-5 -53 -81 158 c-193 382 -359 625 -666 979 -211 243 -230 267 -271 334
-21 36 -54 111 -73 166 -69 200 -123 283 -311 484 -304 324 -375 466 -391 780
-12 238 -26 294 -112 430 -80 126 -102 221 -103 426 0 151 -19 250 -85 442
-89 257 -86 320 24 586 69 165 97 250 145 447 82 332 117 402 282 564 149 145
200 216 329 455 87 160 110 194 175 260 41 42 125 109 185 150 154 104 209
158 257 255 52 105 85 138 256 252 89 59 161 116 192 151 28 31 50 59 50 64 0
17 64 -20 284 -164z"/>
</g>
</svg>
