<svg xmlns="http://www.w3.org/2000/svg" xmlns:xlink="http://www.w3.org/1999/xlink" width="1080" zoomAndPan="magnify" viewBox="0 0 810 809.999993" height="1080" preserveAspectRatio="xMidYMid meet" version="1.0"><defs><g/><clipPath id="33493f2226"><path d="M 356 47.125 L 468 47.125 L 468 317 L 356 317 Z M 356 47.125 " clip-rule="nonzero"/></clipPath><clipPath id="4a64df1c9b"><path d="M 501 352 L 770.886719 352 L 770.886719 464 L 501 464 Z M 501 352 " clip-rule="nonzero"/></clipPath><clipPath id="5c403dbc4b"><path d="M 356 493 L 468 493 L 468 762.625 L 356 762.625 Z M 356 493 " clip-rule="nonzero"/></clipPath></defs><path fill="#a66969" d="M 683.4375 810 L 126.5625 810 C 56.699219 810 0 753.300781 0 683.4375 L 0 126.5625 C 0 56.699219 56.699219 0 126.5625 0 L 683.4375 0 C 753.300781 0 810 56.699219 810 126.5625 L 810 683.4375 C 810 753.300781 753.300781 810 683.4375 810 Z M 683.4375 810 " fill-opacity="1" fill-rule="nonzero"/><g clip-path="url(#33493f2226)"><path fill="#fff5e6" d="M 365.855469 107.992188 C 372.414062 89.355469 382.917969 70.242188 398.515625 57.695312 C 402 54.695312 405.867188 52.3125 410.113281 50.542969 C 414.359375 48.773438 418.773438 47.703125 423.359375 47.339844 C 425.257812 47.261719 427.148438 47.371094 429.027344 47.664062 C 430.90625 47.957031 432.742188 48.429688 434.527344 49.078125 C 436.316406 49.730469 438.023438 50.546875 439.652344 51.53125 C 441.277344 52.515625 442.796875 53.644531 444.203125 54.925781 C 456.480469 65.804688 461.953125 83.53125 464.722656 99.1875 C 466.59375 110.707031 467.492188 122.300781 467.40625 133.972656 C 467.476562 148.214844 466.542969 162.390625 464.605469 176.496094 C 462.703125 190.382812 460.046875 204.121094 456.636719 217.714844 C 453.59375 229.984375 449.796875 241.984375 446.101562 254.0625 C 442.511719 266.800781 438.273438 279.316406 433.378906 291.609375 C 430.90625 298.050781 427.589844 304.019531 423.425781 309.515625 C 421.953125 311.425781 420.171875 312.976562 418.082031 314.175781 C 417.769531 314.558594 417.410156 314.890625 417.003906 315.171875 C 416.597656 315.449219 416.160156 315.667969 415.691406 315.824219 C 415.222656 315.980469 414.738281 316.066406 414.246094 316.082031 C 413.753906 316.101562 413.265625 316.050781 412.785156 315.929688 C 408.996094 314.832031 405.578125 313.03125 402.527344 310.527344 C 398.597656 308.53125 394.882812 306.199219 391.375 303.53125 C 389.425781 301.285156 387.8125 298.820312 386.53125 296.136719 C 385.25 293.453125 384.347656 290.648438 383.828125 287.71875 C 382.328125 281.296875 380.296875 275.042969 377.734375 268.960938 C 375.019531 262.792969 372 256.738281 369.820312 250.375 C 367.605469 243.851562 365.722656 237.234375 364.171875 230.523438 C 360.996094 216.835938 358.777344 202.992188 357.519531 188.996094 C 355.988281 175.351562 355.925781 161.703125 357.332031 148.046875 C 358.734375 134.386719 361.578125 121.035156 365.855469 107.992188 Z M 365.855469 107.992188 " fill-opacity="1" fill-rule="nonzero"/></g><path fill="#fff5e6" d="M 218.125 162.691406 C 213.90625 143.386719 212.828125 121.601562 219.519531 102.734375 C 220.914062 98.351562 222.953125 94.292969 225.636719 90.558594 C 228.320312 86.824219 231.519531 83.597656 235.230469 80.878906 C 236.808594 79.816406 238.472656 78.917969 240.230469 78.183594 C 241.984375 77.445312 243.792969 76.886719 245.65625 76.503906 C 247.519531 76.121094 249.402344 75.921875 251.304688 75.90625 C 253.207031 75.890625 255.09375 76.058594 256.960938 76.410156 C 273.125 79.226562 287.089844 91.4375 297.660156 103.3125 C 305.304688 112.132812 312.152344 121.53125 318.210938 131.507812 C 325.746094 143.59375 332.390625 156.148438 338.144531 169.175781 C 343.816406 181.988281 348.769531 195.078125 353.003906 208.4375 C 356.851562 220.480469 359.917969 232.691406 363.117188 244.917969 C 366.753906 257.644531 369.714844 270.523438 372.003906 283.554688 C 373.277344 290.332031 373.585938 297.15625 372.933594 304.019531 C 372.679688 306.417969 371.976562 308.671875 370.824219 310.789062 C 370.761719 311.28125 370.628906 311.75 370.429688 312.203125 C 370.230469 312.65625 369.972656 313.070312 369.652344 313.449219 C 369.335938 313.828125 368.972656 314.15625 368.5625 314.429688 C 368.148438 314.703125 367.707031 314.917969 367.238281 315.066406 C 363.4375 316.117188 359.582031 316.378906 355.675781 315.851562 C 351.28125 316.214844 346.890625 316.179688 342.503906 315.75 C 339.664062 314.863281 336.996094 313.613281 334.5 312 C 332 310.386719 329.761719 308.472656 327.78125 306.253906 C 323.132812 301.574219 318.121094 297.320312 312.746094 293.496094 C 307.195312 289.664062 301.460938 286.113281 296.253906 281.824219 C 290.9375 277.460938 285.882812 272.769531 281.027344 267.914062 C 271.136719 257.929688 261.980469 247.308594 253.566406 236.054688 C 245.09375 225.242188 237.871094 213.648438 231.894531 201.28125 C 225.917969 188.914062 221.328125 176.050781 218.125 162.691406 Z M 218.125 162.691406 " fill-opacity="1" fill-rule="nonzero"/><path fill="#fff5e6" d="M 126.625 297.476562 C 112.585938 283.566406 99.804688 265.90625 95.144531 246.4375 C 93.925781 242 93.425781 237.488281 93.640625 232.894531 C 93.855469 228.300781 94.777344 223.851562 96.410156 219.550781 C 97.152344 217.800781 98.0625 216.136719 99.132812 214.5625 C 100.203125 212.988281 101.414062 211.535156 102.769531 210.195312 C 104.121094 208.859375 105.59375 207.664062 107.179688 206.613281 C 108.769531 205.566406 110.441406 204.679688 112.203125 203.957031 C 127.289062 197.515625 145.65625 200.160156 160.984375 204.347656 C 172.207031 207.589844 183.082031 211.746094 193.601562 216.816406 C 206.503906 222.847656 218.914062 229.761719 230.835938 237.550781 C 242.574219 245.207031 253.855469 253.488281 264.679688 262.386719 C 274.46875 270.394531 283.691406 278.957031 293.015625 287.484375 C 302.992188 296.175781 312.492188 305.363281 321.511719 315.046875 C 326.269531 320.039062 330.246094 325.59375 333.433594 331.707031 C 334.527344 333.851562 335.167969 336.125 335.355469 338.527344 C 335.570312 338.972656 335.714844 339.441406 335.796875 339.929688 C 335.875 340.417969 335.886719 340.90625 335.824219 341.398438 C 335.765625 341.886719 335.636719 342.359375 335.441406 342.816406 C 335.246094 343.269531 334.992188 343.6875 334.679688 344.070312 C 332.0625 347.019531 328.96875 349.339844 325.40625 351.027344 C 321.914062 353.722656 318.214844 356.085938 314.300781 358.113281 C 311.4375 358.914062 308.519531 359.320312 305.546875 359.328125 C 302.574219 359.335938 299.652344 358.949219 296.785156 358.167969 C 290.335938 356.769531 283.816406 355.929688 277.226562 355.640625 C 270.480469 355.453125 263.738281 355.597656 257.039062 354.835938 C 250.195312 354.050781 243.410156 352.929688 236.683594 351.464844 C 222.949219 348.480469 209.488281 344.5625 196.300781 339.703125 C 183.308594 335.246094 170.9375 329.460938 159.1875 322.339844 C 147.441406 315.222656 136.585938 306.933594 126.625 297.476562 Z M 126.625 297.476562 " fill-opacity="1" fill-rule="nonzero"/><g clip-path="url(#4a64df1c9b)"><path fill="#fff5e6" d="M 709.96875 362.042969 C 728.605469 368.601562 747.714844 379.105469 760.261719 394.707031 C 763.257812 398.195312 765.644531 402.0625 767.414062 406.304688 C 769.183594 410.550781 770.25 414.964844 770.617188 419.550781 C 770.695312 421.453125 770.585938 423.34375 770.292969 425.222656 C 770 427.101562 769.527344 428.933594 768.875 430.722656 C 768.226562 432.507812 767.410156 434.214844 766.425781 435.84375 C 765.441406 437.472656 764.308594 438.988281 763.03125 440.394531 C 752.148438 452.675781 734.425781 458.144531 718.769531 460.914062 C 707.25 462.785156 695.652344 463.679688 683.980469 463.601562 C 669.742188 463.667969 655.566406 462.734375 641.457031 460.792969 C 627.574219 458.894531 613.835938 456.242188 600.242188 452.832031 C 587.972656 449.78125 575.96875 445.984375 563.890625 442.292969 C 551.15625 438.703125 538.640625 434.464844 526.34375 429.570312 C 519.90625 427.09375 513.9375 423.777344 508.433594 419.617188 C 506.535156 418.144531 504.988281 416.363281 503.796875 414.273438 C 503.414062 413.960938 503.082031 413.601562 502.800781 413.195312 C 502.519531 412.789062 502.304688 412.351562 502.148438 411.878906 C 501.992188 411.410156 501.90625 410.929688 501.886719 410.4375 C 501.867188 409.941406 501.917969 409.453125 502.039062 408.976562 C 503.140625 405.1875 504.941406 401.769531 507.441406 398.71875 C 509.441406 394.792969 511.773438 391.070312 514.441406 387.5625 C 516.6875 385.613281 519.152344 384 521.835938 382.71875 C 524.519531 381.441406 527.324219 380.539062 530.253906 380.019531 C 536.675781 378.515625 542.925781 376.484375 549.007812 373.921875 C 555.175781 371.207031 561.230469 368.191406 567.59375 366.007812 C 574.117188 363.796875 580.734375 361.914062 587.445312 360.367188 C 601.132812 357.183594 614.976562 354.964844 628.972656 353.714844 C 642.613281 352.183594 656.265625 352.117188 669.917969 353.523438 C 683.574219 354.925781 696.925781 357.765625 709.96875 362.042969 Z M 709.96875 362.042969 " fill-opacity="1" fill-rule="nonzero"/></g><path fill="#fff5e6" d="M 100.445312 362.042969 C 81.8125 368.601562 62.699219 379.105469 50.15625 394.707031 C 47.15625 398.195312 44.773438 402.0625 43.003906 406.304688 C 41.234375 410.550781 40.164062 414.964844 39.796875 419.550781 C 39.722656 421.453125 39.832031 423.34375 40.125 425.222656 C 40.417969 427.101562 40.886719 428.933594 41.539062 430.722656 C 42.191406 432.507812 43.007812 434.214844 43.992188 435.84375 C 44.972656 437.472656 46.105469 438.988281 47.386719 440.394531 C 58.269531 452.675781 75.988281 458.144531 91.644531 460.914062 C 103.167969 462.785156 114.761719 463.679688 126.433594 463.601562 C 140.675781 463.667969 154.847656 462.734375 168.957031 460.792969 C 182.839844 458.894531 196.582031 456.242188 210.171875 452.832031 C 222.445312 449.78125 234.449219 445.984375 246.527344 442.292969 C 259.261719 438.703125 271.777344 434.464844 284.070312 429.570312 C 290.507812 427.09375 296.480469 423.777344 301.980469 419.617188 C 303.878906 418.144531 305.425781 416.363281 306.617188 414.273438 C 307 413.960938 307.332031 413.601562 307.613281 413.195312 C 307.894531 412.789062 308.113281 412.351562 308.269531 411.882812 C 308.425781 411.410156 308.511719 410.929688 308.53125 410.4375 C 308.546875 409.941406 308.496094 409.453125 308.375 408.976562 C 307.277344 405.1875 305.476562 401.769531 302.976562 398.71875 C 300.996094 394.785156 298.679688 391.058594 296.035156 387.542969 C 293.785156 385.59375 291.320312 383.980469 288.636719 382.699219 C 285.953125 381.417969 283.148438 380.519531 280.222656 380 C 273.800781 378.496094 267.546875 376.460938 261.46875 373.902344 C 255.296875 371.1875 249.246094 368.171875 242.878906 365.988281 C 236.355469 363.777344 229.742188 361.894531 223.03125 360.34375 C 209.339844 357.164062 195.5 354.945312 181.5 353.691406 C 167.847656 352.160156 154.191406 352.097656 140.523438 353.503906 C 126.859375 354.914062 113.5 357.757812 100.445312 362.042969 Z M 100.445312 362.042969 " fill-opacity="1" fill-rule="nonzero"/><path fill="#fff5e6" d="M 607.707031 162.691406 C 611.921875 143.386719 613 121.601562 606.308594 102.734375 C 604.914062 98.351562 602.875 94.292969 600.191406 90.558594 C 597.507812 86.824219 594.3125 83.597656 590.601562 80.878906 C 589.023438 79.816406 587.355469 78.917969 585.601562 78.183594 C 583.847656 77.449219 582.039062 76.886719 580.175781 76.503906 C 578.3125 76.121094 576.429688 75.921875 574.527344 75.90625 C 572.625 75.890625 570.738281 76.058594 568.867188 76.410156 C 552.703125 79.226562 538.742188 91.4375 528.167969 103.3125 C 520.523438 112.132812 513.675781 121.53125 507.617188 131.507812 C 500.082031 143.59375 493.4375 156.148438 487.683594 169.175781 C 482.011719 181.992188 477.058594 195.078125 472.824219 208.4375 C 468.976562 220.480469 465.90625 232.691406 462.730469 244.917969 C 459.097656 257.644531 456.136719 270.523438 453.847656 283.554688 C 452.574219 290.332031 452.261719 297.15625 452.914062 304.019531 C 453.171875 306.417969 453.871094 308.671875 455.023438 310.789062 C 455.085938 311.28125 455.21875 311.753906 455.417969 312.203125 C 455.617188 312.65625 455.875 313.074219 456.191406 313.453125 C 456.511719 313.832031 456.875 314.15625 457.285156 314.429688 C 457.699219 314.707031 458.140625 314.917969 458.609375 315.066406 C 462.410156 316.117188 466.265625 316.378906 470.171875 315.851562 C 474.566406 316.214844 478.953125 316.179688 483.339844 315.75 C 486.179688 314.863281 488.847656 313.609375 491.34375 312 C 493.84375 310.386719 496.085938 308.472656 498.066406 306.253906 C 502.714844 301.574219 507.726562 297.320312 513.101562 293.496094 C 518.648438 289.664062 524.386719 286.113281 529.589844 281.824219 C 534.898438 277.441406 539.972656 272.804688 544.816406 267.914062 C 554.707031 257.929688 563.863281 247.308594 572.277344 236.054688 C 580.746094 225.238281 587.96875 213.648438 593.941406 201.28125 C 599.914062 188.910156 604.503906 176.050781 607.707031 162.691406 Z M 607.707031 162.691406 " fill-opacity="1" fill-rule="nonzero"/><path fill="#fff5e6" d="M 699.203125 297.476562 C 713.238281 283.566406 726.019531 265.90625 730.6875 246.4375 C 731.90625 242 732.40625 237.488281 732.191406 232.894531 C 731.972656 228.300781 731.050781 223.851562 729.421875 219.550781 C 728.675781 217.800781 727.769531 216.136719 726.699219 214.5625 C 725.628906 212.988281 724.417969 211.535156 723.0625 210.195312 C 721.707031 208.859375 720.238281 207.667969 718.648438 206.617188 C 717.0625 205.566406 715.386719 204.679688 713.628906 203.957031 C 698.539062 197.515625 680.175781 200.160156 664.839844 204.347656 C 653.628906 207.585938 642.761719 211.738281 632.25 216.804688 C 619.347656 222.835938 606.9375 229.75 595.015625 237.539062 C 583.277344 245.203125 571.996094 253.484375 561.171875 262.386719 C 551.386719 270.394531 542.160156 278.957031 532.835938 287.484375 C 522.859375 296.175781 513.363281 305.363281 504.347656 315.046875 C 499.582031 320.039062 495.605469 325.589844 492.417969 331.707031 C 491.324219 333.851562 490.683594 336.125 490.5 338.527344 C 490.285156 338.972656 490.136719 339.441406 490.058594 339.929688 C 489.980469 340.417969 489.96875 340.90625 490.027344 341.398438 C 490.089844 341.886719 490.214844 342.359375 490.410156 342.816406 C 490.609375 343.269531 490.863281 343.6875 491.175781 344.070312 C 493.792969 347.023438 496.882812 349.34375 500.449219 351.027344 C 503.941406 353.722656 507.640625 356.085938 511.554688 358.113281 C 514.417969 358.914062 517.335938 359.320312 520.308594 359.328125 C 523.28125 359.335938 526.203125 358.949219 529.074219 358.167969 C 535.519531 356.773438 542.039062 355.929688 548.632812 355.640625 C 555.375 355.453125 562.121094 355.597656 568.816406 354.835938 C 575.660156 354.050781 582.449219 352.929688 589.175781 351.464844 C 602.910156 348.480469 616.371094 344.5625 629.558594 339.703125 C 642.546875 335.246094 654.910156 329.457031 666.652344 322.339844 C 678.394531 315.21875 689.246094 306.933594 699.203125 297.476562 Z M 699.203125 297.476562 " fill-opacity="1" fill-rule="nonzero"/><g clip-path="url(#5c403dbc4b)"><path fill="#fff5e6" d="M 365.855469 702 C 372.414062 720.636719 382.917969 739.75 398.515625 752.296875 C 402 755.296875 405.867188 757.679688 410.113281 759.449219 C 414.359375 761.21875 418.773438 762.289062 423.359375 762.65625 C 425.257812 762.730469 427.148438 762.621094 429.027344 762.328125 C 430.90625 762.035156 432.742188 761.566406 434.527344 760.914062 C 436.316406 760.261719 438.023438 759.445312 439.652344 758.460938 C 441.277344 757.480469 442.796875 756.347656 444.203125 755.066406 C 456.480469 744.1875 461.953125 726.460938 464.722656 710.808594 C 466.59375 699.285156 467.492188 687.691406 467.40625 676.019531 C 467.476562 661.777344 466.542969 647.605469 464.605469 633.496094 C 462.703125 619.609375 460.046875 605.871094 456.636719 592.277344 C 453.59375 580.007812 449.796875 568.007812 446.101562 555.929688 C 442.511719 543.191406 438.273438 530.675781 433.378906 518.382812 C 430.90625 511.945312 427.589844 505.976562 423.425781 500.476562 C 421.953125 498.570312 420.171875 497.015625 418.082031 495.816406 C 417.769531 495.433594 417.410156 495.101562 417.003906 494.820312 C 416.597656 494.542969 416.160156 494.324219 415.691406 494.167969 C 415.222656 494.011719 414.738281 493.925781 414.246094 493.910156 C 413.753906 493.890625 413.265625 493.941406 412.785156 494.0625 C 408.996094 495.160156 405.578125 496.960938 402.527344 499.464844 C 398.597656 501.460938 394.882812 503.792969 391.375 506.460938 C 389.425781 508.707031 387.8125 511.171875 386.53125 513.855469 C 385.25 516.539062 384.347656 519.34375 383.828125 522.273438 C 382.328125 528.699219 380.296875 534.949219 377.734375 541.03125 C 375.019531 547.203125 372 553.253906 369.820312 559.621094 C 367.605469 566.140625 365.722656 572.757812 364.171875 579.46875 C 360.996094 593.15625 358.777344 607 357.519531 620.996094 C 355.988281 634.640625 355.925781 648.289062 357.332031 661.949219 C 358.734375 675.605469 361.578125 688.957031 365.855469 702 Z M 365.855469 702 " fill-opacity="1" fill-rule="nonzero"/></g><path fill="#fff5e6" d="M 218.125 647.300781 C 213.90625 666.605469 212.828125 688.390625 219.519531 707.257812 C 220.914062 711.640625 222.953125 715.699219 225.636719 719.433594 C 228.320312 723.167969 231.519531 726.394531 235.230469 729.113281 C 236.808594 730.175781 238.472656 731.074219 240.230469 731.808594 C 241.984375 732.546875 243.792969 733.105469 245.65625 733.488281 C 247.519531 733.871094 249.402344 734.070312 251.304688 734.085938 C 253.207031 734.101562 255.09375 733.933594 256.960938 733.582031 C 273.125 730.765625 287.089844 718.554688 297.660156 706.679688 C 305.304688 697.859375 312.152344 688.460938 318.210938 678.484375 C 325.746094 666.402344 332.390625 653.84375 338.144531 640.816406 C 343.816406 628.003906 348.769531 614.917969 353.003906 601.558594 C 356.851562 589.515625 359.917969 577.300781 363.117188 565.074219 C 366.753906 552.351562 369.714844 539.472656 372.003906 526.4375 C 373.277344 519.660156 373.585938 512.835938 372.933594 505.972656 C 372.679688 503.574219 371.976562 501.320312 370.824219 499.203125 C 370.761719 498.710938 370.628906 498.242188 370.429688 497.789062 C 370.230469 497.335938 369.972656 496.921875 369.652344 496.542969 C 369.335938 496.164062 368.972656 495.835938 368.5625 495.5625 C 368.148438 495.289062 367.707031 495.078125 367.238281 494.929688 C 363.4375 493.875 359.582031 493.613281 355.675781 494.140625 C 351.28125 493.777344 346.890625 493.8125 342.503906 494.242188 C 339.664062 495.128906 336.996094 496.382812 334.5 497.992188 C 332 499.605469 329.761719 501.519531 327.78125 503.738281 C 323.132812 508.417969 318.121094 512.671875 312.746094 516.496094 C 307.195312 520.328125 301.460938 523.878906 296.253906 528.167969 C 290.9375 532.53125 285.882812 537.222656 281.027344 542.078125 C 271.136719 552.0625 261.980469 562.683594 253.566406 573.9375 C 245.09375 584.753906 237.871094 596.34375 231.894531 608.710938 C 225.917969 621.082031 221.328125 633.941406 218.125 647.300781 Z M 218.125 647.300781 " fill-opacity="1" fill-rule="nonzero"/><path fill="#fff5e6" d="M 126.625 512.515625 C 112.585938 526.425781 99.804688 544.085938 95.144531 563.554688 C 93.925781 567.992188 93.425781 572.503906 93.640625 577.097656 C 93.855469 581.691406 94.777344 586.140625 96.410156 590.441406 C 97.152344 592.191406 98.0625 593.855469 99.132812 595.429688 C 100.203125 597.003906 101.414062 598.460938 102.769531 599.796875 C 104.121094 601.132812 105.59375 602.328125 107.179688 603.378906 C 108.769531 604.425781 110.441406 605.3125 112.203125 606.039062 C 127.289062 612.476562 145.65625 609.832031 160.984375 605.644531 C 172.199219 602.40625 183.0625 598.253906 193.578125 593.191406 C 206.480469 587.15625 218.890625 580.246094 230.8125 572.453125 C 242.546875 564.796875 253.828125 556.519531 264.65625 547.617188 C 274.441406 539.609375 283.664062 531.046875 292.988281 522.519531 C 302.96875 513.828125 312.464844 504.640625 321.484375 494.957031 C 326.246094 489.964844 330.21875 484.414062 333.410156 478.300781 C 334.503906 476.152344 335.144531 473.878906 335.332031 471.480469 C 335.546875 471.03125 335.691406 470.566406 335.769531 470.078125 C 335.851562 469.589844 335.859375 469.097656 335.800781 468.609375 C 335.742188 468.117188 335.613281 467.644531 335.417969 467.191406 C 335.222656 466.734375 334.96875 466.316406 334.652344 465.9375 C 332.035156 462.984375 328.945312 460.664062 325.378906 458.976562 C 321.890625 456.28125 318.191406 453.921875 314.277344 451.890625 C 311.414062 451.089844 308.496094 450.6875 305.519531 450.675781 C 302.546875 450.667969 299.628906 451.054688 296.757812 451.835938 C 290.3125 453.234375 283.792969 454.078125 277.199219 454.363281 C 270.457031 454.550781 263.710938 454.40625 257.011719 455.171875 C 250.171875 455.953125 243.386719 457.078125 236.65625 458.542969 C 222.925781 461.523438 209.464844 465.445312 196.277344 470.304688 C 183.289062 474.757812 170.921875 480.542969 159.179688 487.660156 C 147.433594 494.777344 136.582031 503.0625 126.625 512.515625 Z M 126.625 512.515625 " fill-opacity="1" fill-rule="nonzero"/><path fill="#fff5e6" d="M 607.707031 647.300781 C 611.921875 666.605469 613 688.390625 606.308594 707.257812 C 604.914062 711.640625 602.875 715.699219 600.191406 719.433594 C 597.507812 723.167969 594.3125 726.394531 590.601562 729.113281 C 589.023438 730.175781 587.355469 731.074219 585.601562 731.808594 C 583.847656 732.546875 582.039062 733.105469 580.175781 733.488281 C 578.3125 733.871094 576.429688 734.070312 574.527344 734.085938 C 572.625 734.101562 570.738281 733.933594 568.867188 733.582031 C 552.703125 730.765625 538.742188 718.554688 528.167969 706.679688 C 520.523438 697.859375 513.675781 688.460938 507.617188 678.484375 C 500.082031 666.398438 493.4375 653.84375 487.683594 640.816406 C 482.011719 628.003906 477.058594 614.914062 472.824219 601.558594 C 468.976562 589.515625 465.90625 577.300781 462.730469 565.074219 C 459.097656 552.347656 456.136719 539.46875 453.847656 526.4375 C 452.574219 519.660156 452.261719 512.835938 452.914062 505.972656 C 453.171875 503.574219 453.871094 501.320312 455.023438 499.203125 C 455.085938 498.710938 455.21875 498.242188 455.417969 497.789062 C 455.617188 497.335938 455.875 496.917969 456.191406 496.542969 C 456.511719 496.164062 456.875 495.835938 457.285156 495.5625 C 457.695312 495.289062 458.140625 495.078125 458.609375 494.929688 C 462.410156 493.875 466.265625 493.613281 470.171875 494.140625 C 474.566406 493.777344 478.953125 493.8125 483.339844 494.242188 C 486.179688 495.132812 488.847656 496.382812 491.34375 497.992188 C 493.84375 499.605469 496.085938 501.519531 498.066406 503.738281 C 502.714844 508.417969 507.726562 512.671875 513.101562 516.496094 C 518.648438 520.328125 524.386719 523.878906 529.589844 528.167969 C 534.898438 532.550781 539.972656 537.1875 544.816406 542.078125 C 554.707031 552.0625 563.863281 562.683594 572.277344 573.9375 C 580.746094 584.753906 587.96875 596.34375 593.941406 608.710938 C 599.914062 621.082031 604.503906 633.945312 607.707031 647.300781 Z M 607.707031 647.300781 " fill-opacity="1" fill-rule="nonzero"/><path fill="#fff5e6" d="M 699.203125 512.515625 C 713.238281 526.425781 726.019531 544.085938 730.6875 563.554688 C 731.90625 567.992188 732.40625 572.503906 732.191406 577.097656 C 731.972656 581.691406 731.050781 586.140625 729.421875 590.441406 C 728.675781 592.191406 727.769531 593.855469 726.699219 595.429688 C 725.628906 597.003906 724.417969 598.457031 723.0625 599.796875 C 721.707031 601.132812 720.238281 602.328125 718.648438 603.375 C 717.0625 604.425781 715.386719 605.3125 713.628906 606.039062 C 698.539062 612.476562 680.175781 609.832031 664.839844 605.644531 C 653.628906 602.40625 642.761719 598.253906 632.25 593.191406 C 619.347656 587.15625 606.9375 580.246094 595.015625 572.453125 C 583.277344 564.792969 571.996094 556.507812 561.171875 547.605469 C 551.386719 539.597656 542.160156 531.035156 532.835938 522.507812 C 522.859375 513.816406 513.363281 504.628906 504.347656 494.945312 C 499.582031 489.953125 495.605469 484.402344 492.417969 478.285156 C 491.324219 476.140625 490.683594 473.867188 490.5 471.464844 C 490.285156 471.019531 490.136719 470.554688 490.058594 470.066406 C 489.980469 469.578125 489.96875 469.085938 490.027344 468.597656 C 490.089844 468.105469 490.214844 467.632812 490.410156 467.175781 C 490.609375 466.722656 490.863281 466.304688 491.175781 465.921875 C 493.792969 462.96875 496.882812 460.652344 500.449219 458.964844 C 503.941406 456.269531 507.640625 453.910156 511.554688 451.878906 C 514.417969 451.078125 517.335938 450.675781 520.308594 450.664062 C 523.28125 450.65625 526.203125 451.042969 529.074219 451.824219 C 535.519531 453.222656 542.039062 454.0625 548.632812 454.351562 C 555.375 454.539062 562.121094 454.394531 568.816406 455.15625 C 575.660156 455.941406 582.449219 457.066406 589.175781 458.53125 C 602.910156 461.511719 616.371094 465.433594 629.558594 470.289062 C 642.546875 474.746094 654.910156 480.535156 666.652344 487.652344 C 678.394531 494.773438 689.246094 503.058594 699.203125 512.515625 Z M 699.203125 512.515625 " fill-opacity="1" fill-rule="nonzero"/><path fill="#a66969" d="M 521.921875 457.886719 C 520.1875 461.539062 518.269531 465.097656 516.164062 468.554688 C 514.058594 472.007812 511.777344 475.347656 509.328125 478.566406 C 506.875 481.78125 504.261719 484.867188 501.484375 487.8125 C 498.710938 490.757812 495.792969 493.550781 492.726562 496.195312 C 489.664062 498.835938 486.46875 501.3125 483.144531 503.621094 C 479.824219 505.933594 476.390625 508.0625 472.84375 510.015625 C 469.300781 511.964844 465.664062 513.730469 461.933594 515.300781 C 458.207031 516.875 454.40625 518.25 450.535156 519.425781 C 443.230469 521.386719 435.816406 522.734375 428.292969 523.472656 C 420.765625 524.210938 413.234375 524.328125 405.6875 523.824219 C 398.144531 523.324219 390.691406 522.207031 383.332031 520.480469 C 375.96875 518.753906 368.800781 516.433594 361.820312 513.527344 C 334.667969 502.375 310.691406 482.09375 299.3125 454.574219 C 296.691406 448.25 294.761719 441.722656 293.53125 434.988281 C 292.039062 430 290.855469 424.941406 289.972656 419.8125 C 288.570312 412.886719 287.96875 405.894531 288.171875 398.832031 C 288.375 391.769531 289.375 384.820312 291.171875 377.988281 C 300.066406 346.835938 325.699219 322.605469 353.164062 307.023438 C 380.183594 291.6875 414.597656 280.925781 445.699219 288.105469 C 450.453125 289.328125 455.105469 290.859375 459.65625 292.695312 C 464.210938 294.53125 468.621094 296.65625 472.894531 299.074219 C 477.167969 301.492188 481.261719 304.179688 485.179688 307.136719 C 489.097656 310.09375 492.804688 313.292969 496.304688 316.738281 C 503.371094 323.222656 509.652344 330.398438 515.152344 338.261719 C 520.648438 346.125 525.230469 354.488281 528.894531 363.355469 C 540.785156 393.898438 536.300781 428.957031 521.921875 457.886719 Z M 521.921875 457.886719 " fill-opacity="1" fill-rule="nonzero"/><g fill="#ffffff" fill-opacity="1"><g transform="translate(320.245806, 475.725389)"><g><path d="M 90.359375 3.65625 C 74.140625 3.65625 59.992188 0.257812 47.921875 -6.53125 C 35.847656 -13.332031 26.664062 -22.3125 20.375 -33.46875 C 14.09375 -44.625 10.953125 -56.390625 10.953125 -68.765625 C 10.953125 -84.585938 14.5 -98.328125 21.59375 -109.984375 C 28.695312 -121.648438 38.84375 -130.578125 52.03125 -136.765625 C 65.21875 -142.953125 80.734375 -146.046875 98.578125 -146.046875 C 107.097656 -146.046875 115.210938 -145.234375 122.921875 -143.609375 C 130.628906 -141.984375 137.117188 -139.648438 142.390625 -136.609375 C 143.609375 -136.003906 144.367188 -135.191406 144.671875 -134.171875 C 144.984375 -133.160156 145.238281 -131.742188 145.4375 -129.921875 L 148.484375 -101.328125 C 148.484375 -100.710938 147.925781 -100.351562 146.8125 -100.25 C 145.695312 -100.15625 145.035156 -100.410156 144.828125 -101.015625 C 140.367188 -115.015625 133.675781 -125.257812 124.75 -131.75 C 115.820312 -138.238281 104.664062 -141.484375 91.28125 -141.484375 C 73.425781 -141.484375 59.175781 -135.347656 48.53125 -123.078125 C 37.882812 -110.804688 32.5625 -94.019531 32.5625 -72.71875 C 32.5625 -58.71875 35.195312 -46.289062 40.46875 -35.4375 C 45.738281 -24.59375 53.289062 -16.125 63.125 -10.03125 C 72.96875 -3.945312 84.484375 -0.90625 97.671875 -0.90625 C 107.804688 -0.90625 115.257812 -1.816406 120.03125 -3.640625 C 124.800781 -5.472656 127.992188 -8.972656 129.609375 -14.140625 C 131.234375 -19.316406 132.046875 -27.382812 132.046875 -38.34375 C 132.046875 -43.613281 131.488281 -47.3125 130.375 -49.4375 C 129.257812 -51.570312 126.925781 -52.992188 123.375 -53.703125 C 119.832031 -54.410156 113.695312 -54.765625 104.96875 -54.765625 C 103.75 -54.765625 103.140625 -55.578125 103.140625 -57.203125 C 103.140625 -57.804688 103.289062 -58.363281 103.59375 -58.875 C 103.90625 -59.382812 104.265625 -59.640625 104.671875 -59.640625 C 115.210938 -58.828125 125.859375 -58.421875 136.609375 -58.421875 C 141.484375 -58.421875 149.597656 -58.625 160.953125 -59.03125 C 161.359375 -59.03125 161.710938 -58.773438 162.015625 -58.265625 C 162.328125 -57.753906 162.484375 -57.296875 162.484375 -56.890625 C 162.484375 -55.472656 161.972656 -54.765625 160.953125 -54.765625 C 156.898438 -54.972656 154.0625 -54.671875 152.4375 -53.859375 C 150.8125 -53.046875 149.796875 -51.367188 149.390625 -48.828125 C 148.984375 -46.296875 148.78125 -41.785156 148.78125 -35.296875 C 148.78125 -26.171875 148.984375 -19.78125 149.390625 -16.125 C 149.796875 -12.476562 150 -9.941406 150 -8.515625 C 150 -7.296875 149.847656 -6.535156 149.546875 -6.234375 C 149.242188 -5.929688 148.28125 -5.476562 146.65625 -4.875 C 133.269531 0.8125 114.503906 3.65625 90.359375 3.65625 Z M 90.359375 3.65625 "/></g></g></g></svg>